<?xml version="1.0" encoding="UTF-8"?>
<svg id="Camada_2" data-name="Camada 2" xmlns="http://www.w3.org/2000/svg" viewBox="0 0 29.24 29.24">
  <defs>
    <style>
      .cls-1 {
        fill: #6bd7f3;
      }
    </style>
  </defs>
  <g id="ELEMENTS">
    <g>
      <path class="cls-1" d="M18.04,7.64h-6.84c-1.95,0-3.54,1.59-3.54,3.54v6.84c0,1.95,1.59,3.54,3.54,3.54h6.84c1.95,0,3.54-1.59,3.54-3.54v-6.84c0-1.95-1.59-3.54-3.54-3.54Zm-3.35,11.18c-2.33,0-4.22-1.89-4.22-4.22s1.89-4.22,4.22-4.22,4.22,1.89,4.22,4.22-1.89,4.22-4.22,4.22Zm4.47-7.72c-.56,0-1.01-.45-1.01-1.01s.45-1.01,1.01-1.01,1.01,.45,1.01,1.01-.45,1.01-1.01,1.01Z"/>
      <path class="cls-1" d="M14.69,11.9c-1.49,0-2.7,1.21-2.7,2.7s1.21,2.7,2.7,2.7,2.7-1.21,2.7-2.7-1.21-2.7-2.7-2.7Z"/>
      <path class="cls-1" d="M14.62,0C6.55,0,0,6.55,0,14.62s6.55,14.62,14.62,14.62,14.62-6.55,14.62-14.62S22.7,0,14.62,0Zm8.57,18.02c0,2.84-2.31,5.15-5.15,5.15h-6.84c-2.84,0-5.15-2.31-5.15-5.15v-6.84c0-2.84,2.31-5.15,5.15-5.15h6.84c2.84,0,5.15,2.31,5.15,5.15v6.84Z"/>
    </g>
  </g>
</svg>