<?xml version="1.0" encoding="UTF-8"?>
<svg id="Camada_2" data-name="Camada 2" xmlns="http://www.w3.org/2000/svg" viewBox="0 0 29.24 29.24">
  <defs>
    <style>
      .cls-1 {
        fill: #6bd7f3;
      }
    </style>
  </defs>
  <g id="ELEMENTS">
    <path class="cls-1" d="M14.62,0C6.55,0,0,6.55,0,14.62s6.55,14.62,14.62,14.62,14.62-6.55,14.62-14.62S22.7,0,14.62,0Zm-3.3,21h-2.83V11.9h2.83v9.1Zm-1.42-10.34c-.91,0-1.64-.74-1.64-1.64s.73-1.64,1.64-1.64,1.64,.73,1.64,1.64-.73,1.64-1.64,1.64Zm12.01,10.34h-2.83v-4.42c0-1.06-.02-2.41-1.47-2.41s-1.7,1.15-1.7,2.34v4.5h-2.83V11.9h2.71v1.24h.04c.38-.72,1.3-1.47,2.68-1.47,2.86,0,3.39,1.88,3.39,4.33v4.99Z"/>
  </g>
</svg>