<?xml version="1.0" encoding="UTF-8"?>
<svg id="Camada_2" data-name="Camada 2" xmlns="http://www.w3.org/2000/svg" viewBox="0 0 321.53 212.63">
  <defs>
    <style>
      .cls-1 {
        fill: #fff;
      }

      .cls-2 {
        fill: #2096d3;
      }
    </style>
  </defs>
  <g id="lab_510">
    <g>
      <g id="padrão">
        <path class="cls-2" d="M47.44,68.04c.2-30.36,.2-50.66,.2-50.66C47.64,17.38,48.3,.61,53.49,0H16.36C7.32,0,0,7.32,0,16.36V96.74l19.04-.2s27.82,2.25,28.4-28.5Z"/>
        <path class="cls-2" d="M47.44,144.59c.2,30.36,.2,50.66,.2,50.66,0,0,.66,16.77,5.85,17.38H16.36c-9.03,0-16.36-7.32-16.36-16.36V115.9l19.04,.2s27.82-2.25,28.4,28.5Z"/>
        <path class="cls-2" d="M305.17,0h-105.15c-.47,.02-1.02,.08-1.61,.16-.7-.09-1.41-.16-2.14-.16H91.13c-5.15,.28-18.85,2.94-18.83,23.5l.72,42.82s1.28,18.85-8.08,30.06c-2.15,2.57-5.77,5.6-8.81,7-3.16,1.45-7.87,2.92-8.49,2.94-.88,.03,25.96,5.35,25.57,35.71v50.46s1.76,20.14,18.55,20.14h104.52c.75,0,1.48-.07,2.2-.17,.7,.08,1.41,.17,2.17,.17h104.52c9.03,0,16.36-7.32,16.36-16.36V16.36c0-9.03-7.32-16.36-16.36-16.36Z"/>
      </g>
      <g>
        <path class="cls-1" d="M132.18,16.11V86.77c0,3.1,.7,5.35,2.1,6.75,1.4,1.4,3.45,2.1,6.17,2.1h14.09v7.92h-14.9c-5.51,0-9.66-1.51-12.46-4.54-2.79-3.03-4.19-7.45-4.19-13.27V24.26h-17.23v-7.92l26.42-.23Z"/>
        <path class="cls-1" d="M196.9,41.02c8.07,0,13.85,1.9,17.34,5.7,3.49,3.88,5.24,10.17,5.24,18.86v26.8c0,3.88,.92,7.7,2.69,11.15h0s-4.56,0-4.56,0c-4.11,0-7.45-3.34-7.45-7.45h0c-1.55,2.48-3.76,4.58-6.64,6.29-2.87,1.71-6.48,2.56-10.83,2.56-5.51,0-10.09-1.59-13.74-4.77-3.57-3.1-5.35-7.72-5.35-13.85s1.94-10.9,5.82-14.32c3.8-3.34,10.05-5,18.74-5h12.46v-3.84c0-5.51-1.09-9.23-3.26-11.18-2.25-2.02-6.09-3.03-11.53-3.03-2.95,0-5.94,.35-8.96,1.05-2.95,.7-5.59,1.71-7.92,3.03v-8.61c2.56-1.01,5.47-1.82,8.73-2.44,1.63-.31,3.26-.54,4.89-.7,1.63-.15,3.26-.23,4.89-.23h-.58Zm1.63,33.76c-5.98,0-10.09,.97-12.34,2.91-2.33,2.02-3.49,4.93-3.49,8.73s.93,6.4,2.79,8.03c1.86,1.63,4.42,2.44,7.68,2.44,3.73,0,7.1-.81,10.13-2.44,.03-.02,.06-.03,.09-.05,4.4-2.4,6.89-7.25,6.89-12.26v-7.25l-11.76-.12Z"/>
        <path class="cls-1" d="M252.55,16.34v30.62c1.4-1.63,3.45-3.07,6.17-4.31,2.56-1.16,5.43-1.75,8.61-1.75,7.29,0,12.88,2.79,16.76,8.38,3.88,5.67,5.82,13.54,5.82,23.63s-1.9,18.12-5.7,23.63c-3.88,5.59-9.35,8.38-16.41,8.38-3.26,0-6.21-.58-8.85-1.75-2.56-1.09-4.7-2.68-6.4-4.77v5.24h-9.31V16.34h9.31Zm13.27,32.71c-2.72,0-5.28,.62-7.68,1.86-2.48,1.32-4.35,2.95-5.59,4.89v33.41c1.16,2.41,2.91,4.31,5.24,5.7s5.01,2.1,8.03,2.1c4.97,0,8.61-1.86,10.94-5.59,2.33-3.73,3.49-9.85,3.49-18.39s-1.16-14.67-3.49-18.39c-2.33-3.73-5.98-5.59-10.94-5.59Z"/>
      </g>
      <g>
        <path class="cls-1" d="M121.73,178.18c0,3.86,2.1,6.53,6.3,8.02,1.59,.54,3.26,.81,5,.81,5,0,8.62-1.42,10.87-4.26,1.01-1.35,1.52-2.88,1.52-4.57v-18.58c0-3.79-2.25-6.43-6.74-7.92-1.81-.61-3.69-.91-5.65-.91-4.42,0-7.68,1.39-9.78,4.16-1.02,1.35-1.52,2.91-1.52,4.67h-9.56v-41.62h39.45v8.43h-29.89v18.58c3.55-1.69,7.32-2.54,11.3-2.54,7.17,0,12.9,2,17.17,5.99,3.19,3.05,4.78,6.77,4.78,11.17v18.58c-.29,6.7-3.69,11.61-10.22,14.72-3.55,1.62-7.46,2.44-11.74,2.44-6.96,0-12.43-2-16.41-5.99-2.97-3.05-4.46-6.77-4.46-11.17h9.56Z"/>
        <path class="cls-1" d="M196.87,129.55l-3.91,3.76-6.3-5.59,10.22-9.75h9.56v76.34h-9.56v-64.77Z"/>
        <path class="cls-1" d="M286.03,178.18c0,4.4-1.48,8.12-4.46,11.17-3.98,4-9.46,5.99-16.41,5.99-3.98,0-7.64-.78-10.98-2.34-6.3-3.05-9.56-7.99-9.78-14.82v-44.06c.07-4.26,1.49-7.88,4.24-10.86,3.99-4.2,9.49-6.29,16.52-6.29,4.13,0,7.9,.81,11.3,2.44,6.38,3.11,9.56,8.02,9.56,14.72v44.06Zm-27.61,7.21c2.03,1.08,4.28,1.62,6.74,1.62,1.74,0,3.41-.27,5-.81,4.2-1.49,6.3-4.16,6.3-8.02v-42.94s-18.04,50.15-18.04,50.15Zm-4.45-8.02l18.15-50.45c-1.88-1.02-4.2-1.56-6.96-1.62-1.74,0-3.4,.27-5,.81-4.13,1.49-6.19,4.16-6.19,8.02v43.25Z"/>
      </g>
    </g>
  </g>
</svg>