<?xml version="1.0" encoding="UTF-8"?>
<svg id="Camada_2" data-name="Camada 2" xmlns="http://www.w3.org/2000/svg" viewBox="0 0 200 200">
  <defs>
    <style>
      .cls-1 {
        fill: #fff;
      }
    </style>
  </defs>
  <g id="Lab_510">
    <g id="padrão">
      <path class="cls-1" d="M44.62,64c.19-28.55,.19-47.65,.19-47.65,0,0,.62-15.78,5.5-16.35H15.39C6.89,0,0,6.89,0,15.39V90.99l17.91-.18s26.17,2.11,26.71-26.81Z"/>
      <path class="cls-1" d="M44.62,136c.19,28.55,.19,47.65,.19,47.65,0,0,.62,15.78,5.5,16.35H15.39c-8.5,0-15.39-6.89-15.39-15.39V109.01l17.91,.18s26.17-2.11,26.71,26.81Z"/>
      <path class="cls-1" d="M184.61,0H85.72c-4.85,.26-17.73,2.77-17.71,22.1l.67,40.27s1.21,17.73-7.6,28.28c-2.02,2.42-5.42,5.27-8.29,6.58s-7.4,2.74-7.99,2.77c-.83,.03,24.42,5.04,24.05,33.59v47.47s1.65,18.94,17.44,18.94h98.31c8.5,0,15.39-6.89,15.39-15.39V15.39c0-8.5-6.89-15.39-15.39-15.39Z"/>
    </g>
  </g>
</svg>