<?xml version="1.0" encoding="utf-8"?>
<!-- Generator: Adobe Illustrator 26.4.1, SVG Export Plug-In . SVG Version: 6.00 Build 0)  -->
<svg version="1.1" id="Camada_1" xmlns="http://www.w3.org/2000/svg" xmlns:xlink="http://www.w3.org/1999/xlink" x="0px" y="0px"
	 viewBox="0 0 500 500" style="enable-background:new 0 0 500 500;" xml:space="preserve">
<g>
	<path fill="#fff" d="M136.63,45.57c5.94,1.28,12.05,2.06,17.81,3.93c28.54,9.29,46.99,28.7,55.61,57.29c4.64,15.4,4.09,31.03-0.24,46.45
		c-0.97,3.47-0.21,5.48,2.24,7.92c42.3,42.19,84.54,84.45,126.66,126.82c2.7,2.72,5.03,3.38,8.65,2.5
		c15.74-3.8,31.66-4.9,47.28,0.04c31.45,9.95,50.67,31.45,58.02,63.51c2.81,12.28,1.99,24.58-0.94,36.76
		c-2.49,10.36-13.21,13.54-20.89,6.04c-10.38-10.13-20.47-20.56-30.82-30.71c-11.16-10.94-27.56-10.06-36.76,1.78
		c-6.47,8.33-6.76,20.85,0.28,28.8c7.57,8.55,15.91,16.43,23.94,24.58c3.17,3.23,6.47,6.33,9.57,9.62c7.2,7.66,4.13,18.12-6,20.7
		c-46.39,11.79-92.74-17.24-102.21-64.17c-2.7-13.38-1.59-26.76,1.68-39.93c0.93-3.74,0.26-6.17-2.58-9
		c-42.16-41.96-84.2-84.04-126.14-126.22c-2.87-2.89-5.37-3.68-9.3-2.74c-17.25,4.14-34.66,4.93-51.46-1.52
		c-29.42-11.3-47.45-32.64-53.78-63.64c-0.74-3.62-1.1-7.32-1.64-10.98c0-2.4,0-4.79,0-7.19c0.99-5.73,1.71-11.53,3.02-17.19
		c2.37-10.23,12.87-13.28,20.56-6.1c3.2,2.99,6.21,6.2,9.33,9.28c8.24,8.11,16.2,16.53,24.84,24.19c7.88,6.99,20.53,6.75,28.83,0.4
		c11.96-9.14,12.92-25.42,1.97-36.62c-9.85-10.08-19.87-19.98-29.87-29.92c-3.81-3.79-6.26-7.96-4.52-13.54
		c1.72-5.5,5.88-7.88,11.24-8.78c4.29-0.72,8.56-1.58,12.85-2.37C128.11,45.57,132.37,45.57,136.63,45.57z"/>
	<path fill="#fff" d="M45.61,400.88c1.81-8.21,4.14-16.21,9.52-22.93c1.66-2.07,3.36-4.14,5.23-6.01c37.22-37.26,74.46-74.5,111.7-111.73
		c0.47-0.47,0.96-0.9,1.07-1c22.5,22.5,44.93,44.92,67.58,67.58c-0.1,0.12-0.72,0.92-1.43,1.63
		c-36.95,36.96-73.87,73.96-110.88,110.86c-18.08,18.03-44.09,20.18-63.79,5.32c-9.86-7.43-15.83-17.38-18.2-29.49
		c-0.2-1.03-0.53-2.03-0.79-3.05C45.61,408.33,45.61,404.6,45.61,400.88z M109.51,406.67c2.46,0.15,5.5-2.32,8.4-5.22
		c23.02-23.05,46.07-46.08,69.09-69.12c0.94-0.94,1.88-1.89,2.68-2.95c5.45-7.21,1.74-17.12-7.09-18.98
		c-5.16-1.09-8.93,1.32-12.38,4.78c-23.1,23.16-46.24,46.28-69.35,69.43c-1.12,1.13-2.3,2.27-3.14,3.6
		c-2.46,3.9-2.71,8.03-0.53,12.11C99.37,404.4,102.89,406.48,109.51,406.67z"/>
	<path fill="#fff" d="M424.07,45.57c3.09,2.2,6.46,4.1,9.22,6.66c5.56,5.15,10.81,10.64,16.14,16.03c5.82,5.89,6.44,10.74,2.16,17.89
		c-12,20.08-24.03,40.15-36.11,60.18c-5.29,8.78-13.59,9.8-20.84,2.61c-1.88-1.86-3.49-3.99-5.72-6.57
		c-27.14,27.47-53.65,54.3-79.9,80.88c-11.73-11.72-22.81-22.78-33.48-33.45c26.16-26.46,52.67-53.28,79.41-80.33
		c-2.02-2.13-3.82-3.84-5.42-5.72c-5.02-5.91-4.3-13.98,2.29-18.03c21.18-13.01,42.57-25.67,63.89-38.45
		c1.12-0.67,2.38-1.14,3.57-1.7C420.88,45.57,422.47,45.57,424.07,45.57z"/>
</g>
</svg>
