<?xml version="1.0" encoding="UTF-8"?>
<svg id="Camada_2" data-name="Camada 2" xmlns="http://www.w3.org/2000/svg" viewBox="0 0 29.24 29.24">
  <defs>
    <style>
      .cls-1 {
        fill: #6bd7f3;
      }
    </style>
  </defs>
  <g id="ELEMENTS">
    <g>
      <path class="cls-1" d="M14.62,0C6.55,0,0,6.55,0,14.62s6.55,14.62,14.62,14.62,14.62-6.55,14.62-14.62S22.7,0,14.62,0Zm7.83,16.67c0,1.94-1.57,3.51-3.51,3.51H9.96c-1.94,0-3.51-1.57-3.51-3.51v-4.18c0-1.94,1.57-3.51,3.51-3.51h8.98c1.94,0,3.51,1.57,3.51,3.51v4.18Z"/>
      <path class="cls-1" d="M17,14.48l-3.85-2.1c-.16-.09-.7,.02-.7,.21v4.09c0,.18,.54,.29,.69,.21l4.03-1.99c.16-.09,0-.32-.17-.41Z"/>
    </g>
  </g>
</svg>